<svg xmlns="http://www.w3.org/2000/svg" version="1.1" xmlns:xlink="http://www.w3.org/1999/xlink" viewBox="0 0 5.197150516616773 4.276077557784507"><g transform="matrix(0.8441548492875471,0,0,0.8441548492875471,0.7381783284942538,2.6371211342172476)"><g transform="matrix(1,0,0,1,0,0)" clip-path="url(#SvgjsClipPath22826)"><g clip-path="url(#SvgjsClipPath22824e15479b2-251d-4654-9a96-27257d6ab17d)"><path d=" M 1.8699102478626772 -0.8554174987796972 C 1.8844685525396192 -0.8801666167304989 1.8934115111268837 -0.9086592987410864 1.8934115111268837 -0.9392317385626647 C 1.8934115111268837 -0.9704281057275412 1.8844685525396192 -0.9989207877381281 1.8699102478626772 -1.0236699056889298 L 1.8746936908279577 -1.0236699056889298 C 1.9680748165414874 -1.0236699056889298 2.0441939524237855 -1.0999970173523264 2.0441939524237855 -1.1931701672847568 C 2.0441939524237855 -1.2865512929982865 1.967866840760388 -1.362670428880584 1.8746936908279577 -1.362670428880584 L 1.7047774776699327 -1.362670428880584 C 1.7193357823468747 -1.3874195468313857 1.7282787409341394 -1.415912228841973 1.7282787409341394 -1.4464846686635515 C 1.7282787409341394 -1.4776810358284278 1.7193357823468747 -1.5061737178390149 1.7047774776699327 -1.5309228357898164 C 1.7039455745455359 -1.53258664203861 1.703113671421139 -1.5346663998496015 1.7018658167345444 -1.536954133441692 C 1.7750732916814542 -1.5552560021784199 1.8295629463294374 -1.6213923005679574 1.8295629463294374 -1.7004230973856436 C 1.8295629463294374 -1.7938042230991726 1.7536517862282386 -1.8699233589814708 1.6600626847336097 -1.8699233589814708 L 1.5860233066623037 -1.8699233589814708 C 1.6005816113392457 -1.8946724769322725 1.6095245699265104 -1.9231651589428596 1.6095245699265104 -1.9537375987644383 C 1.6095245699265104 -1.9849339659293144 1.6005816113392457 -2.0134266479399017 1.5860233066623037 -2.038175765890703 L 1.84890469397166 -2.038175765890703 C 1.9196164595453793 -2.038175765890703 1.980553363407438 -2.081642704140431 2.0057184329204376 -2.143411511126885 L 2.7294741511455642 -2.143411511126885 C 2.8436528549690108 -2.143411511126885 2.936826004901441 -2.0504463369755546 2.936826004901441 -1.9360596573710085 L 2.936826004901441 -0.9571176557371943 C 2.936826004901441 -0.8429389519137478 2.8434448791879117 -0.7501817535435165 2.7294741511455642 -0.7501817535435165 L 1.587895088692196 -0.7501817535435165 C 1.5849834277568078 -0.7570449543197895 1.5814478394781213 -0.7639081550960616 1.5777042754183361 -0.7701474285290371 L 1.7243272010932544 -0.7701474285290371 C 1.7863039838608095 -0.770355404310135 1.8405856627276935 -0.8048793839725978 1.8699102478626772 -0.8554174987796972 Z" fill="#404040" transform="matrix(1,0,0,1,0,0)" fill-rule="nonzero"></path></g><g clip-path="url(#SvgjsClipPath22824e15479b2-251d-4654-9a96-27257d6ab17d)"><path d=" M 3.116725055552228 -2.052110143224347 L 3.116725055552228 -0.8414831214460523 C 3.116725055552228 -0.6855012856216718 2.9902757806439295 -0.5590520107133734 2.834293944819549 -0.5590520107133734 L 1.5423483926314774 -0.5590520107133734 C 1.5777042754183368 -0.5902483778782492 1.6007895871203455 -0.63537912237677 1.6007895871203455 -0.6859172371838695 C 1.6007895871203455 -0.6931963895223405 1.600373635558147 -0.7004755418608115 1.5991257808715518 -0.7075467184181838 L 2.7292661753644656 -0.7075467184181838 C 2.867362094014317 -0.7075467184181838 2.9792530642456736 -0.8196456644306382 2.9792530642456736 -0.9571176557371928 L 2.9792530642456736 -1.9360596573710067 C 2.9792530642456736 -2.0741555760208588 2.867154118233219 -2.1860465462522143 2.7292661753644656 -2.1860465462522143 L 2.016533173537595 -2.1860465462522143 C 2.01778102822419 -2.1933256985906855 2.0181969797863886 -2.2006048509291567 2.0181969797863886 -2.207676027486529 C 2.0181969797863886 -2.2584221180747273 1.9951116680843797 -2.303552862573248 1.9597557852975203 -2.334541253957025 L 2.8342939448195485 -2.334541253957025 C 2.9902757806439295 -2.334957205519224 3.116725055552228 -2.208299954829827 3.116725055552228 -2.052110143224347 Z" fill="#404040" transform="matrix(1,0,0,1,0,0)" fill-rule="nonzero"></path></g><g clip-path="url(#SvgjsClipPath22824e15479b2-251d-4654-9a96-27257d6ab17d)"><path d=" M 0.7168925174488544 -2.123653811922463 L 0.8079859095702928 -2.123653811922463 C 0.8543645087554085 -2.123653811922463 0.8922161009154583 -2.161505404082513 0.8922161009154583 -2.2078840032676283 C 0.8922161009154583 -2.2542626024527443 0.8543645087554085 -2.292114194612794 0.8079859095702928 -2.292114194612794 L 0.7168925174488544 -2.292114194612794 C 0.6705139182637384 -2.292114194612794 0.6326623261036888 -2.2542626024527443 0.6326623261036888 -2.2078840032676283 C 0.6326623261036888 -2.161505404082513 0.6703059424826392 -2.123653811922463 0.7168925174488544 -2.123653811922463 Z" fill="#dce2e3" transform="matrix(1,0,0,1,0,0)" fill-rule="nonzero"></path></g><g clip-path="url(#SvgjsClipPath22824e15479b2-251d-4654-9a96-27257d6ab17d)"><path d=" M 0.4779283449659028 -1.86992335898147 L 0.5950187097247379 -1.86992335898147 L 0.6151923604913577 -1.86992335898147 C 0.6615709596764737 -1.86992335898147 0.6994225518365234 -1.9077749511415194 0.6994225518365234 -1.9541535503266356 C 0.6994225518365234 -2.0005321495117516 0.6615709596764737 -2.0383837416718014 0.6151923604913577 -2.0383837416718014 L 0.4779283449659028 -2.0383837416718014 C 0.4315497457807868 -2.0383837416718014 0.39369815362073723 -2.0005321495117516 0.39369815362073723 -1.9541535503266356 C 0.39390612940183645 -1.90777495114152 0.4315497457807868 -1.86992335898147 0.4779283449659028 -1.86992335898147 Z" fill="#dce2e3" transform="matrix(1,0,0,1,0,0)" fill-rule="nonzero"></path></g><g clip-path="url(#SvgjsClipPath22824e15479b2-251d-4654-9a96-27257d6ab17d)"><path d=" M 0.7064937283938957 -1.7006310731667422 C 0.7064937283938957 -1.7470096723518576 0.668642136233846 -1.7848612645119075 0.62226353704873 -1.7848612645119075 L 0.6154003362724573 -1.7848612645119075 L 0.5952266855058373 -1.7848612645119075 C 0.5488480863207214 -1.7848612645119075 0.5109964941606718 -1.7470096723518576 0.5109964941606718 -1.7006310731667422 C 0.5109964941606718 -1.6542524739816262 0.5488480863207214 -1.6164008818215763 0.5952266855058373 -1.6164008818215763 L 0.62226353704873 -1.6164008818215763 C 0.668850112014945 -1.616400881821577 0.7064937283938957 -1.654044498200527 0.7064937283938957 -1.7006310731667422 Z" fill="#dce2e3" transform="matrix(1,0,0,1,0,0)" fill-rule="nonzero"></path></g><g clip-path="url(#SvgjsClipPath22824e15479b2-251d-4654-9a96-27257d6ab17d)"><path d=" M 0.3080121318078773 -1.7006310731667422 C 0.3080121318078773 -1.7212206754955606 0.2911660935388441 -1.7380667137645935 0.27057649121002586 -1.7380667137645935 L 0.2535224771598938 -1.7380667137645935 C 0.23293287483107553 -1.7380667137645935 0.21608683656204233 -1.7212206754955606 0.21608683656204233 -1.7006310731667422 C 0.21608683656204233 -1.6800414708379234 0.23293287483107553 -1.6631954325688902 0.2535224771598938 -1.6631954325688902 L 0.27057649121002586 -1.6631954325688902 C 0.2911660935388441 -1.663195432568891 0.3080121318078773 -1.6798334950568248 0.3080121318078773 -1.7006310731667422 Z" fill="#4e888f" transform="matrix(1,0,0,1,0,0)" fill-rule="nonzero"></path></g><g clip-path="url(#SvgjsClipPath22824e15479b2-251d-4654-9a96-27257d6ab17d)"><path d=" M 1.3223100162285513 -1.4469006202257493 C 1.3223100162285513 -1.4932792194108653 1.2844584240685015 -1.5311308115709157 1.2380798248833855 -1.5311308115709157 L 0.9939162578729547 -1.5311308115709157 L 0.852492726725516 -1.5311308115709157 C 0.8061141275403999 -1.5311308115709157 0.7682625353803504 -1.4932792194108657 0.7682625353803504 -1.4469006202257493 C 0.7682625353803504 -1.4005220210406333 0.8061141275403999 -1.3626704288805835 0.852492726725516 -1.3626704288805835 L 1.0184574000426572 -1.3626704288805835 L 1.1041434218555168 -1.3626704288805835 L 1.2380798248833855 -1.3626704288805835 C 1.2842504482874018 -1.3626704288805835 1.3223100162285513 -1.4005220210406333 1.3223100162285513 -1.4469006202257493 Z" fill="#dce2e3" transform="matrix(1,0,0,1,0,0)" fill-rule="nonzero"></path></g><g clip-path="url(#SvgjsClipPath22824e15479b2-251d-4654-9a96-27257d6ab17d)"><path d=" M 1.5591944309005106 -1.5311308115709146 C 1.5130238074964937 -1.5307148600087161 1.4755881668986424 -1.4930712436297655 1.4755881668986424 -1.4469006202257488 C 1.4755881668986424 -1.4007299968217324 1.5130238074964937 -1.3630863804427817 1.5591944309005106 -1.3626704288805829 C 1.6053650543045273 -1.3630863804427817 1.6428006949023788 -1.4005220210406328 1.6428006949023788 -1.4469006202257488 C 1.643008670683478 -1.4930712436297662 1.6053650543045273 -1.5307148600087168 1.5591944309005106 -1.5311308115709146 Z" fill="#bab9b4" transform="matrix(1,0,0,1,0,0)" fill-rule="nonzero"></path></g><g clip-path="url(#SvgjsClipPath22824e15479b2-251d-4654-9a96-27257d6ab17d)"><path d=" M 0.6043776198742006 -1.4469006202257493 C 0.6043776198742006 -1.4932792194108653 0.5665260277141511 -1.5311308115709157 0.5201474285290351 -1.5311308115709157 L 0.4344614067161751 -1.5311308115709157 C 0.38808280753105934 -1.5311308115709157 0.35023121537100954 -1.4932792194108657 0.35023121537100954 -1.4469006202257493 C 0.35023121537100954 -1.4005220210406333 0.38808280753105934 -1.3626704288805835 0.4344614067161751 -1.3626704288805835 L 0.5201474285290351 -1.3626704288805835 C 0.56673400349525 -1.3626704288805835 0.6043776198742006 -1.4005220210406333 0.6043776198742006 -1.4469006202257493 Z" fill="#4e888f" transform="matrix(1,0,0,1,0,0)" fill-rule="nonzero"></path></g><g clip-path="url(#SvgjsClipPath22824e15479b2-251d-4654-9a96-27257d6ab17d)"><path d=" M 1.0180414484804587 -1.277400358629922 C 0.9716628492953427 -1.277400358629922 0.933811257135293 -1.2395487664698728 0.933811257135293 -1.1931701672847563 C 0.933811257135293 -1.1467915680996403 0.9716628492953427 -1.1089399759395904 1.0180414484804587 -1.1089399759395904 L 1.0573488711082024 -1.1089399759395904 L 1.1039354460744177 -1.1089399759395904 C 1.1503140452595337 -1.1089399759395904 1.1881656374195841 -1.1467915680996403 1.1881656374195841 -1.1931701672847563 C 1.1881656374195841 -1.2395487664698728 1.1503140452595342 -1.277400358629922 1.1039354460744177 -1.277400358629922 L 1.0180414484804587 -1.277400358629922 Z" fill="#dce2e3" transform="matrix(1,0,0,1,0,0)" fill-rule="nonzero"></path></g><g clip-path="url(#SvgjsClipPath22824e15479b2-251d-4654-9a96-27257d6ab17d)"><path d=" M 0.562782463654366 -1.1931701672847563 C 0.562782463654366 -1.1467915680996408 0.6006340558144155 -1.1089399759395904 0.6470126549995315 -1.1089399759395904 L 0.7216759604141352 -1.1089399759395904 L 0.7326986768123915 -1.1089399759395904 C 0.7790772759975075 -1.1089399759395904 0.816928868157557 -1.1467915680996403 0.816928868157557 -1.1931701672847563 C 0.816928868157557 -1.2395487664698728 0.7790772759975075 -1.277400358629922 0.7326986768123915 -1.277400358629922 L 0.6470126549995315 -1.277400358629922 C 0.6004260800333167 -1.277400358629922 0.562782463654366 -1.2397567422509714 0.562782463654366 -1.1931701672847563 Z" fill="#4e888f" transform="matrix(1,0,0,1,0,0)" fill-rule="nonzero"></path></g><g clip-path="url(#SvgjsClipPath22824e15479b2-251d-4654-9a96-27257d6ab17d)"><path d=" M 0.37082081769982805 -1.2268622438228227 L 0.33088946772878647 -1.2268622438228227 C 0.3092599864944722 -1.2268622438228227 0.29179002088214173 -1.2093922782104918 0.29179002088214173 -1.1877627969761781 C 0.29179002088214173 -1.1661333157418639 0.3092599864944725 -1.1486633501295331 0.33088946772878647 -1.1486633501295331 L 0.37082081769982805 -1.1486633501295331 C 0.39245029893414235 -1.1486633501295331 0.40992026454647285 -1.1661333157418639 0.40992026454647285 -1.1877627969761781 C 0.40992026454647285 -1.2093922782104918 0.39224232315304314 -1.2268622438228227 0.37082081769982805 -1.2268622438228227 Z" fill="#4e888f" transform="matrix(1,0,0,1,0,0)" fill-rule="nonzero"></path></g><g clip-path="url(#SvgjsClipPath22824e15479b2-251d-4654-9a96-27257d6ab17d)"><path d=" M 0.8059061517593008 -0.9396476901248625 C 0.8059061517593008 -0.9860262893099785 0.7680545595992512 -1.0238778814700285 0.7216759604141352 -1.0238778814700285 L 0.6470126549995315 -1.0238778814700285 L 0.6359899386012752 -1.0238778814700285 C 0.5896113394161592 -1.0238778814700285 0.5517597472561097 -0.9860262893099792 0.5517597472561097 -0.9396476901248625 C 0.5517597472561097 -0.8932690909397465 0.5896113394161592 -0.8554174987796967 0.6359899386012752 -0.8554174987796967 L 0.7216759604141352 -0.8554174987796967 C 0.7682625353803504 -0.8554174987796972 0.8059061517593008 -0.8930611151586478 0.8059061517593008 -0.9396476901248625 Z" fill="#dce2e3" transform="matrix(1,0,0,1,0,0)" fill-rule="nonzero"></path></g><g clip-path="url(#SvgjsClipPath22824e15479b2-251d-4654-9a96-27257d6ab17d)"><path d=" M 0.9184210493339542 -0.7701474285290355 L 0.8327350275210943 -0.7701474285290355 C 0.7863564283359785 -0.7701474285290355 0.7485048361759287 -0.7322958363689862 0.7485048361759287 -0.6859172371838695 C 0.7485048361759287 -0.6395386379987535 0.7863564283359785 -0.6016870458387038 0.8327350275210943 -0.6016870458387038 L 0.9184210493339542 -0.6016870458387038 C 0.9647996485190702 -0.6016870458387038 1.0026512406791201 -0.6395386379987535 1.0026512406791201 -0.6859172371838695 C 1.0024432648980208 -0.7322958363689862 0.9647996485190702 -0.7701474285290355 0.9184210493339542 -0.7701474285290355 Z" fill="#dce2e3" transform="matrix(1,0,0,1,0,0)" fill-rule="nonzero"></path></g><g clip-path="url(#SvgjsClipPath22824e15479b2-251d-4654-9a96-27257d6ab17d)"><path d=" M 0.08714185228055411 -1.4860000670723943 L 0.039099446846644764 -1.4860000670723943 C 0.017469965612330496 -1.4860000670723943 0 -1.4685301014600636 0 -1.4469006202257493 C 0 -1.4252711389914356 0.017469965612330773 -1.407801173379105 0.039099446846644764 -1.407801173379105 L 0.08714185228055411 -1.407801173379105 C 0.10877133351486838 -1.407801173379105 0.1262412991271989 -1.4252711389914356 0.1262412991271989 -1.4469006202257493 C 0.12603332334609968 -1.4683221256789643 0.10856335773376918 -1.4860000670723943 0.08714185228055411 -1.4860000670723943 Z" fill="#4e888f" transform="matrix(1,0,0,1,0,0)" fill-rule="nonzero"></path></g><g clip-path="url(#SvgjsClipPath22824e15479b2-251d-4654-9a96-27257d6ab17d)"><path d=" M 1.7239112495310571 -1.0238778814700285 L 1.7097688964163131 -1.0238778814700285 L 1.496593720789659 -1.0238778814700285 L 1.1041434218555168 -1.0238778814700285 L 1.0575568468893022 -1.0238778814700285 C 1.0111782477041862 -1.0238778814700285 0.9733266555441364 -0.9860262893099792 0.9733266555441364 -0.9396476901248625 C 0.9733266555441364 -0.8932690909397465 1.0111782477041862 -0.8554174987796967 1.0575568468893022 -0.8554174987796967 L 1.2253933022363357 -0.8554174987796967 L 1.4314973013056176 -0.8554174987796967 L 1.7239112495310571 -0.8554174987796967 C 1.7702898487161727 -0.8554174987796967 1.8081414408762229 -0.8932690909397465 1.8081414408762229 -0.9396476901248625 C 1.8081414408762224 -0.9860262893099792 1.770081872935074 -1.0238778814700285 1.7239112495310571 -1.0238778814700285 Z" fill="#bab9b4" transform="matrix(1,0,0,1,0,0)" fill-rule="nonzero"></path></g><g clip-path="url(#SvgjsClipPath22824e15479b2-251d-4654-9a96-27257d6ab17d)"><path d=" M 2.0560485719464388 -0.4184603826903315 L 2.0419062188316945 -0.4184603826903315 L 1.9137931376746034 -0.4184603826903315 L 1.6066129089911225 -0.4184603826903315 L 1.5600263340249068 -0.4184603826903315 C 1.5136477348397914 -0.4184603826903315 1.475796142679741 -0.3806087905302822 1.475796142679741 -0.33423019134516574 C 1.475796142679741 -0.28785159216004974 1.5136477348397908 -0.25 1.5600263340249068 -0.25 L 1.6428006949023781 -0.25 L 1.84890469397166 -0.25 L 2.056256547727537 -0.25 C 2.1026351469126525 -0.25 2.1404867390727027 -0.28785159216004974 2.1404867390727027 -0.33423019134516574 C 2.140278763291604 -0.3806087905302822 2.1026351469126534 -0.4184603826903315 2.0560485719464388 -0.4184603826903315 Z" fill="#404040" transform="matrix(1,0,0,1,0,0)" fill-rule="nonzero"></path></g><g clip-path="url(#SvgjsClipPath22824e15479b2-251d-4654-9a96-27257d6ab17d)"><path d=" M 1.7445008518598748 -1.7006310731667422 C 1.7445008518598748 -1.7470096723518576 1.706649259699825 -1.7848612645119075 1.660270660514709 -1.7848612645119075 L 1.4400243083306832 -1.7848612645119075 L 1.310247420924798 -1.7848612645119075 L 0.9939162578729536 -1.7848612645119075 C 0.9475376586878376 -1.7848612645119075 0.909686066527788 -1.7470096723518576 0.909686066527788 -1.7006310731667422 C 0.909686066527788 -1.6542524739816262 0.9475376586878376 -1.6164008818215763 0.9939162578729536 -1.6164008818215763 L 1.2380798248833849 -1.6164008818215763 L 1.5587784793383115 -1.6164008818215763 L 1.5602343098060054 -1.6164008818215763 L 1.619091455857072 -1.6164008818215763 L 1.6602706605147084 -1.6164008818215763 C 1.706649259699825 -1.616400881821577 1.7445008518598748 -1.654044498200527 1.7445008518598748 -1.7006310731667422 Z" fill="#bab9b4" transform="matrix(1,0,0,1,0,0)" fill-rule="nonzero"></path></g><g clip-path="url(#SvgjsClipPath22824e15479b2-251d-4654-9a96-27257d6ab17d)"><path d=" M 1.8746936908279583 -1.277400358629922 L 1.619091455857073 -1.277400358629922 L 1.5602343098060065 -1.277400358629922 L 1.5587784793383126 -1.277400358629922 L 1.496593720789659 -1.277400358629922 C 1.4502151216045436 -1.277400358629922 1.4123635294444932 -1.2395487664698728 1.4123635294444932 -1.1931701672847563 C 1.4123635294444932 -1.1467915680996403 1.450215121604543 -1.1089399759395904 1.496593720789659 -1.1089399759395904 L 1.7241192253121558 -1.1089399759395904 L 1.8749016666090574 -1.1089399759395904 C 1.921280265794173 -1.1089399759395904 1.9591318579542234 -1.1467915680996403 1.9591318579542234 -1.1931701672847563 C 1.9589238821731236 -1.2397567422509714 1.920864314231975 -1.277400358629922 1.8746936908279583 -1.277400358629922 Z" fill="#bab9b4" transform="matrix(1,0,0,1,0,0)" fill-rule="nonzero"></path></g><g clip-path="url(#SvgjsClipPath22824e15479b2-251d-4654-9a96-27257d6ab17d)"><path d=" M 0.9596002539915908 -1.86992335898147 L 0.9937082820918555 -1.86992335898147 L 1.3102474209247987 -1.86992335898147 L 1.4400243083306836 -1.86992335898147 C 1.4864029075157996 -1.86992335898147 1.5242544996758496 -1.9077749511415194 1.5242544996758496 -1.9541535503266356 C 1.5242544996758496 -2.0005321495117516 1.4864029075158003 -2.0383837416718014 1.4400243083306836 -2.0383837416718014 L 1.3102474209247987 -2.0383837416718014 L 1.1825502913299062 -2.0383837416718014 L 0.95980822977269 -2.0383837416718014 C 0.9134296305875739 -2.0383837416718014 0.8755780384275244 -2.0005321495117516 0.8755780384275244 -1.9541535503266356 C 0.8751620868653259 -1.90777495114152 0.913221654806475 -1.86992335898147 0.9596002539915908 -1.86992335898147 Z" fill="#bab9b4" transform="matrix(1,0,0,1,0,0)" fill-rule="nonzero"></path></g><g clip-path="url(#SvgjsClipPath22824e15479b2-251d-4654-9a96-27257d6ab17d)"><path d=" M 1.1821343397677073 -2.123653811922463 L 1.3100394451437 -2.123653811922463 L 1.439816332549585 -2.123653811922463 L 1.8486967181905618 -2.123653811922463 C 1.8950753173756774 -2.123653811922463 1.9329269095357278 -2.161505404082513 1.9329269095357278 -2.2078840032676283 C 1.9329269095357278 -2.2542626024527443 1.8950753173756778 -2.292114194612794 1.8486967181905618 -2.292114194612794 L 1.182342315548807 -2.292114194612794 C 1.135963716363691 -2.292114194612794 1.0981121242036411 -2.2542626024527443 1.0981121242036411 -2.2078840032676283 C 1.0981121242036411 -2.161505404082513 1.1357557405825918 -2.123653811922463 1.1821343397677073 -2.123653811922463 Z" fill="#bab9b4" transform="matrix(1,0,0,1,0,0)" fill-rule="nonzero"></path></g><g clip-path="url(#SvgjsClipPath22824e15479b2-251d-4654-9a96-27257d6ab17d)"><path d=" M 1.4312893255245183 -0.7701474285290355 L 1.2251853264552366 -0.7701474285290355 C 1.1788067272701206 -0.7701474285290355 1.1409551351100702 -0.7322958363689862 1.1409551351100702 -0.6859172371838695 C 1.1409551351100702 -0.6395386379987535 1.17880672727012 -0.6016870458387038 1.2251853264552366 -0.6016870458387038 L 1.4312893255245183 -0.6016870458387038 C 1.4776679247096338 -0.6016870458387038 1.5155195168696842 -0.6395386379987535 1.5155195168696842 -0.6859172371838695 C 1.515311541088585 -0.7322958363689862 1.4778759004907336 -0.7701474285290355 1.4312893255245183 -0.7701474285290355 Z" fill="#bab9b4" transform="matrix(1,0,0,1,0,0)" fill-rule="nonzero"></path></g></g><g><path d=" M 0.082763671875 0.93310546875 L 0.1962890625 0.93310546875 L 0.1962890625 0.224853515625 L 0.082763671875 0.224853515625 L 0.082763671875 0.02197265625 L 0.6240234375 0.0234375 Q 0.699462890625 0.0234375 0.7620849609375 0.0501708984375 Q 0.82470703125 0.076904296875 0.8701171875 0.1226806640625 Q 0.91552734375 0.16845703125 0.9407958984375 0.2296142578125 Q 0.966064453125 0.290771484375 0.966064453125 0.359619140625 Q 0.966064453125 0.440185546875 0.9378662109375 0.492919921875 Q 0.90966796875 0.545654296875 0.857666015625 0.577880859375 Q 0.91259765625 0.613037109375 0.9444580078125 0.6646728515625 Q 0.976318359375 0.71630859375 0.976318359375 0.790283203125 Q 0.976318359375 0.86572265625 0.9503173828125 0.9287109375 Q 0.92431640625 0.99169921875 0.8792724609375 1.0374755859375 Q 0.834228515625 1.083251953125 0.772705078125 1.1085205078125 Q 0.711181640625 1.1337890625 0.64013671875 1.1337890625 L 0.082763671875 1.1337890625 L 0.082763671875 0.93310546875 M 0.439453125 0.674560546875 L 0.439453125 0.93310546875 L 0.6240234375 0.93310546875 Q 0.645263671875 0.93310546875 0.6639404296875 0.922119140625 Q 0.6826171875 0.9111328125 0.6961669921875 0.8931884765625 Q 0.709716796875 0.875244140625 0.7177734375 0.8514404296875 Q 0.725830078125 0.82763671875 0.725830078125 0.802001953125 Q 0.725830078125 0.77490234375 0.7177734375 0.7518310546875 Q 0.709716796875 0.728759765625 0.69580078125 0.7115478515625 Q 0.681884765625 0.6943359375 0.6632080078125 0.6844482421875 Q 0.64453125 0.674560546875 0.6240234375 0.674560546875 L 0.439453125 0.674560546875 M 0.439453125 0.224853515625 L 0.439453125 0.473876953125 L 0.61376953125 0.473876953125 Q 0.63427734375 0.473876953125 0.652587890625 0.463623046875 Q 0.6708984375 0.453369140625 0.6844482421875 0.4361572265625 Q 0.697998046875 0.4189453125 0.7060546875 0.3973388671875 Q 0.714111328125 0.375732421875 0.714111328125 0.352294921875 Q 0.714111328125 0.32958984375 0.7060546875 0.306884765625 Q 0.697998046875 0.2841796875 0.6844482421875 0.265869140625 Q 0.6708984375 0.24755859375 0.652587890625 0.2362060546875 Q 0.63427734375 0.224853515625 0.61376953125 0.224853515625 L 0.439453125 0.224853515625 M 1.7607421875 0.651123046875 L 1.554931640625 0.651123046875 L 1.554931640625 0.57275390625 Q 1.52490234375 0.57275390625 1.5 0.5767822265625 Q 1.47509765625 0.580810546875 1.4564208984375 0.59033203125 Q 1.437744140625 0.599853515625 1.4249267578125 0.61669921875 Q 1.412109375 0.633544921875 1.406982421875 0.658447265625 L 1.406982421875 0.93310546875 L 1.5615234375 0.93310546875 L 1.5615234375 1.1337890625 L 1.06640625 1.1337890625 L 1.06640625 0.93310546875 L 1.179931640625 0.93310546875 L 1.179931640625 0.57568359375 L 1.06787109375 0.57568359375 L 1.06787109375 0.375 L 1.405517578125 0.375 L 1.405517578125 0.428466796875 Q 1.437744140625 0.40283203125 1.47802734375 0.388916015625 Q 1.518310546875 0.375 1.56591796875 0.375 Q 1.6142578125 0.375 1.66552734375 0.375732421875 Q 1.716796875 0.37646484375 1.7607421875 0.37646484375 L 1.7607421875 0.651123046875 M 1.8837890625 0.375 L 2.224365234375 0.375 L 2.224365234375 0.93310546875 L 2.329833984375 0.93310546875 L 2.329833984375 1.1337890625 L 1.8837890625 1.1337890625 L 1.8837890625 0.93310546875 L 1.998046875 0.93310546875 L 1.998046875 0.57568359375 L 1.8837890625 0.57568359375 L 1.8837890625 0.375 M 1.986328125 0.13037109375 Q 1.986328125 0.103271484375 1.9962158203125 0.0794677734375 Q 2.006103515625 0.0556640625 2.023681640625 0.0380859375 Q 2.041259765625 0.0205078125 2.0650634765625 0.01025390625 Q 2.0888671875 0 2.11669921875 0 Q 2.14306640625 0 2.16650390625 0.01025390625 Q 2.18994140625 0.0205078125 2.20751953125 0.0380859375 Q 2.22509765625 0.0556640625 2.2353515625 0.0794677734375 Q 2.24560546875 0.103271484375 2.24560546875 0.13037109375 Q 2.24560546875 0.157470703125 2.2353515625 0.1812744140625 Q 2.22509765625 0.205078125 2.20751953125 0.22265625 Q 2.18994140625 0.240234375 2.16650390625 0.25048828125 Q 2.14306640625 0.2607421875 2.11669921875 0.2607421875 Q 2.0888671875 0.2607421875 2.0650634765625 0.25048828125 Q 2.041259765625 0.240234375 2.023681640625 0.22265625 Q 2.006103515625 0.205078125 1.9962158203125 0.1812744140625 Q 1.986328125 0.157470703125 1.986328125 0.13037109375 M 2.927490234375 1.0927734375 Q 2.90185546875 1.10888671875 2.880615234375 1.1202392578125 Q 2.859375 1.131591796875 2.838134765625 1.1385498046875 Q 2.81689453125 1.1455078125 2.794189453125 1.1488037109375 Q 2.771484375 1.152099609375 2.744384765625 1.152099609375 Q 2.67626953125 1.152099609375 2.6224365234375 1.1334228515625 Q 2.568603515625 1.11474609375 2.5316162109375 1.0821533203125 Q 2.49462890625 1.049560546875 2.474853515625 1.0052490234375 Q 2.455078125 0.9609375 2.455078125 0.908935546875 Q 2.455078125 0.856201171875 2.4752197265625 0.8115234375 Q 2.495361328125 0.766845703125 2.533447265625 0.7349853515625 Q 2.571533203125 0.703125 2.6268310546875 0.6851806640625 Q 2.68212890625 0.667236328125 2.753173828125 0.667236328125 Q 2.80517578125 0.667236328125 2.8480224609375 0.6727294921875 Q 2.890869140625 0.67822265625 2.927490234375 0.686279296875 L 2.927490234375 0.662841796875 Q 2.927490234375 0.63427734375 2.91650390625 0.6134033203125 Q 2.905517578125 0.592529296875 2.8857421875 0.5789794921875 Q 2.865966796875 0.5654296875 2.838134765625 0.5592041015625 Q 2.810302734375 0.552978515625 2.77734375 0.552978515625 Q 2.70849609375 0.552978515625 2.6561279296875 0.5665283203125 Q 2.603759765625 0.580078125 2.555419921875 0.605712890625 L 2.485107421875 0.463623046875 Q 2.559814453125 0.412353515625 2.6414794921875 0.38525390625 Q 2.72314453125 0.358154296875 2.814697265625 0.358154296875 Q 2.8857421875 0.358154296875 2.9461669921875 0.3739013671875 Q 3.006591796875 0.3896484375 3.0498046875 0.4251708984375 Q 3.093017578125 0.460693359375 3.1175537109375 0.517822265625 Q 3.14208984375 0.574951171875 3.14208984375 0.656982421875 L 3.14208984375 0.93310546875 L 3.243896484375 0.93310546875 L 3.243896484375 1.1337890625 L 2.927490234375 1.1337890625 L 2.927490234375 1.0927734375 M 2.760498046875 0.979248046875 Q 2.8125 0.979248046875 2.85498046875 0.96240234375 Q 2.8974609375 0.945556640625 2.927490234375 0.92138671875 L 2.927490234375 0.82470703125 L 2.751708984375 0.82470703125 Q 2.73486328125 0.82470703125 2.71875 0.829833984375 Q 2.70263671875 0.8349609375 2.6898193359375 0.844482421875 Q 2.677001953125 0.85400390625 2.6693115234375 0.867919921875 Q 2.66162109375 0.8818359375 2.66162109375 0.900146484375 Q 2.66162109375 0.933837890625 2.6861572265625 0.95654296875 Q 2.710693359375 0.979248046875 2.760498046875 0.979248046875 M 4.02099609375 0.697265625 Q 4.02099609375 0.633544921875 3.9873046875 0.5972900390625 Q 3.95361328125 0.56103515625 3.89794921875 0.56103515625 Q 3.85986328125 0.56103515625 3.821044921875 0.577880859375 Q 3.7822265625 0.5947265625 3.74560546875 0.640869140625 L 3.74560546875 0.93310546875 L 3.86865234375 0.93310546875 L 3.86865234375 1.1337890625 L 3.39697265625 1.1337890625 L 3.39697265625 0.93310546875 L 3.50830078125 0.93310546875 L 3.50830078125 0.57568359375 L 3.3984375 0.57568359375 L 3.3984375 0.375 L 3.744140625 0.375 L 3.744140625 0.441650390625 Q 3.791748046875 0.404296875 3.8507080078125 0.3826904296875 Q 3.90966796875 0.361083984375 3.974853515625 0.361083984375 Q 4.11181640625 0.361083984375 4.185791015625 0.4376220703125 Q 4.259765625 0.51416015625 4.259765625 0.661376953125 L 4.259765625 0.93310546875 L 4.367431640625 0.93310546875 L 4.367431640625 1.1337890625 L 4.02099609375 1.1337890625 L 4.02099609375 0.697265625" fill="#404040" fill-rule="nonzero"></path></g><g></g></g><defs><clipPath id="SvgjsClipPath22826"><path d=" M 0 -2.334542275542734 h 3.1167250555522283 v 2.084542275542734 h -3.1167250555522283 Z"></path></clipPath><clipPath id="SvgjsClipPath22824e15479b2-251d-4654-9a96-27257d6ab17d"><path d=" M 0 -2.334542275542734 L 3.1167250555522283 -2.334542275542734 L 3.1167250555522283 -0.25000000000000044 L 0 -0.25000000000000044 Z"></path></clipPath></defs></svg>