<svg xmlns="http://www.w3.org/2000/svg" version="1.1" xmlns:xlink="http://www.w3.org/1999/xlink" viewBox="0 0 9.440996189594783 3.4527334733272514"><g transform="matrix(0.7626623797946706,0,0,0.7626623797946706,4.547079978078918,1.2940176043679164)"><g transform="matrix(1,0,0,1,0,0)" clip-path="url(#SvgjsClipPath116005)"><g clip-path="url(#SvgjsClipPath11600356cd8675-43ba-4e85-87a1-637c0315d6cf)"><path d=" M -1.8224920424179576 1.0653012082756927 C -1.8058824606049044 1.0370649191935015 -1.7956794317768856 1.004557594787953 -1.7956794317768856 0.9696774729805406 C -1.7956794317768856 0.934085511952568 -1.8058824606049044 0.9015781875470201 -1.8224920424179576 0.8733418984648287 L -1.8170346083936693 0.8733418984648287 C -1.7104960050499387 0.8733418984648287 -1.6236516201416862 0.7862602338163904 -1.6236516201416862 0.6799589102128463 C -1.6236516201416862 0.5734203068691157 -1.710733284790125 0.48657592196086386 -1.8170346083936693 0.48657592196086386 L -2.0108921561260242 0.48657592196086386 C -1.9942825743129706 0.45833963287867263 -1.9840795454849518 0.42583230847312414 -1.9840795454849518 0.39095218666571174 C -1.9840795454849518 0.35536022563773906 -1.9942825743129706 0.32285290123219124 -2.0108921561260242 0.2946166121499999 C -2.01184127508677 0.29271837422850777 -2.0127903940475163 0.2903455768266433 -2.0142140724886346 0.28773549968459233 C -1.9306916039429924 0.2668548825481817 -1.8685243120141348 0.1913999251688805 -1.8685243120141348 0.10123362389801749 C -1.8685243120141348 -0.00530497944571251 -1.955131417182201 -0.09214936435396492 -2.061907300266118 -0.09214936435396492 L -2.1463788877725056 -0.09214936435396492 C -2.129769305959452 -0.12038565343615626 -2.119566277131433 -0.15289297784170447 -2.119566277131433 -0.18777309964911754 C -2.119566277131433 -0.22336506067708944 -2.129769305959452 -0.25587238508263765 -2.1463788877725056 -0.284108674164829 L -1.8464572961767929 -0.284108674164829 C -1.7657821845133892 -0.284108674164829 -1.6962592206387495 -0.3337001398638036 -1.667548372076186 -0.4041722226991886 L -0.8418148762272302 -0.4041722226991886 C -0.711548298864852 -0.4041722226991886 -0.6052469752613088 -0.29810817883583135 -0.6052469752613088 -0.1676043217332664 L -0.6052469752613088 0.9492714153245023 C -0.6052469752613088 1.0795379926868804 -0.7117855786050384 1.1853647568100507 -0.8418148762272302 1.1853647568100507 L -2.1442433701108277 1.1853647568100507 C -2.147565286473438 1.1775345253838965 -2.151599042056609 1.1697042939577436 -2.1558700773799653 1.1625859017521487 L -1.9885878605484955 1.1625859017521487 C -1.9178784979729229 1.1623486220119634 -1.8559484857842516 1.1229601851410078 -1.8224920424179576 1.0653012082756927 Z" fill="#404040" transform="matrix(1,0,0,1,0,0)" fill-rule="nonzero"></path></g><g clip-path="url(#SvgjsClipPath11600356cd8675-43ba-4e85-87a1-637c0315d6cf)"><path d=" M -0.40000000000000036 -0.3000064167573222 L -0.40000000000000036 1.0811989508681872 C -0.40000000000000036 1.2591587560080482 -0.5442660820333818 1.4034248380414294 -0.7222258871732428 1.4034248380414294 L -2.1962076332116665 1.4034248380414294 C -2.155870077379965 1.3678328770134573 -2.1295320262192647 1.316343173392991 -2.1295320262192647 1.2586841965276758 C -2.1295320262192647 1.2503794056211492 -2.130006585699638 1.2420746147146224 -2.131430264140757 1.2340071035482816 L -0.8420521559674161 1.2340071035482816 C -0.6844984084835928 1.2340071035482816 -0.556841908263265 1.1061133235877687 -0.556841908263265 0.9492714153245041 L -0.556841908263265 -0.1676043217332645 C -0.556841908263265 -0.3251580692170882 -0.6847356882237778 -0.45281456943741527 -0.8420521559674161 -0.45281456943741527 L -1.6552098255864887 -0.45281456943741527 C -1.6537861471453694 -0.46111936034394196 -1.6533115876649962 -0.469424151250469 -1.6533115876649962 -0.4774916624168095 C -1.6533115876649962 -0.5353879190223109 -1.6796496388256963 -0.5868776226427777 -1.719987194657398 -0.6222323039305631 L -0.7222258871732432 -0.6222323039305631 C -0.5442660820333818 -0.6227068634109371 -0.40000000000000036 -0.47820350163737 -0.40000000000000036 -0.3000064167573222 Z" fill="#404040" transform="matrix(1,0,0,1,0,0)" fill-rule="nonzero"></path></g><g clip-path="url(#SvgjsClipPath11600356cd8675-43ba-4e85-87a1-637c0315d6cf)"><path d=" M -3.137970922011811 -0.3816306473814717 L -3.034042395810132 -0.3816306473814717 C -2.981129013748547 -0.3816306473814717 -2.9379441010346072 -0.42481556009541144 -2.9379441010346072 -0.4777289421569967 C -2.9379441010346072 -0.5306423242185822 -2.981129013748547 -0.5738272369325219 -3.034042395810132 -0.5738272369325219 L -3.137970922011811 -0.5738272369325219 C -3.1908843040733967 -0.5738272369325219 -3.234069216787336 -0.5306423242185822 -3.234069216787336 -0.4777289421569967 C -3.234069216787336 -0.42481556009541144 -3.191121583813583 -0.3816306473814717 -3.137970922011811 -0.3816306473814717 Z" fill="#dce2e3" transform="matrix(1,0,0,1,0,0)" fill-rule="nonzero"></path></g><g clip-path="url(#SvgjsClipPath11600356cd8675-43ba-4e85-87a1-637c0315d6cf)"><path d=" M -3.4106053434860786 -0.09214936435396437 L -3.2770168497610896 -0.09214936435396437 L -3.2540007149630013 -0.09214936435396437 C -3.2010873329014156 -0.09214936435396437 -3.157902420187476 -0.13533427706790346 -3.157902420187476 -0.18824765912948926 C -3.157902420187476 -0.2411610411910748 -3.2010873329014156 -0.2843459539050142 -3.2540007149630013 -0.2843459539050142 L -3.4106053434860786 -0.2843459539050142 C -3.4635187255476643 -0.2843459539050142 -3.5067036382616035 -0.2411610411910748 -3.5067036382616035 -0.18824765912948926 C -3.506466358521417 -0.13533427706790407 -3.4635187255476643 -0.09214936435396437 -3.4106053434860786 -0.09214936435396437 Z" fill="#dce2e3" transform="matrix(1,0,0,1,0,0)" fill-rule="nonzero"></path></g><g clip-path="url(#SvgjsClipPath11600356cd8675-43ba-4e85-87a1-637c0315d6cf)"><path d=" M -3.149834909021135 0.10099634415783154 C -3.149834909021135 0.04808296209624674 -3.1930198217350747 0.004898049382306979 -3.2459332037966604 0.004898049382306979 L -3.2537634352228144 0.004898049382306979 L -3.276779570020903 0.004898049382306979 C -3.329692952082488 0.004898049382306979 -3.3728778647964277 0.04808296209624674 -3.3728778647964277 0.10099634415783154 C -3.3728778647964277 0.15390972621941712 -3.329692952082488 0.19709463893335688 -3.276779570020903 0.19709463893335688 L -3.2459332037966604 0.19709463893335688 C -3.1927825419948883 0.19709463893335621 -3.149834909021135 0.15414700595960362 -3.149834909021135 0.10099634415783154 Z" fill="#dce2e3" transform="matrix(1,0,0,1,0,0)" fill-rule="nonzero"></path></g><g clip-path="url(#SvgjsClipPath11600356cd8675-43ba-4e85-87a1-637c0315d6cf)"><path d=" M -3.604462891218434 0.10099634415783154 C -3.604462891218434 0.07750564987936992 -3.6236825501735392 0.0582859909242649 -3.647173244452001 0.0582859909242649 L -3.666630183147292 0.0582859909242649 C -3.6901208774257537 0.0582859909242649 -3.709340536380859 0.07750564987936992 -3.709340536380859 0.10099634415783154 C -3.709340536380859 0.12448703843629383 -3.6901208774257537 0.14370669739139896 -3.666630183147292 0.14370669739139896 L -3.647173244452001 0.14370669739139896 C -3.6236825501735392 0.1437066973913983 -3.604462891218434 0.12472431817647978 -3.604462891218434 0.10099634415783154 Z" fill="#4e888f" transform="matrix(1,0,0,1,0,0)" fill-rule="nonzero"></path></g><g clip-path="url(#SvgjsClipPath11600356cd8675-43ba-4e85-87a1-637c0315d6cf)"><path d=" M -2.447249598328963 0.3904776271853392 C -2.447249598328963 0.3375642451237537 -2.4904345110429027 0.2943793324098134 -2.5433478931044884 0.2943793324098134 L -2.821914308083418 0.2943793324098134 L -2.9832645314102253 0.2943793324098134 C -3.036177913471811 0.2943793324098134 -3.07936282618575 0.33756424512375316 -3.07936282618575 0.3904776271853392 C -3.07936282618575 0.44339100924692487 -3.036177913471811 0.4865759219608645 -2.9832645314102253 0.4865759219608645 L -2.793915298741413 0.4865759219608645 L -2.6961560457845826 0.4865759219608645 L -2.5433478931044884 0.4865759219608645 C -2.49067179078309 0.4865759219608645 -2.447249598328963 0.44339100924692487 -2.447249598328963 0.3904776271853392 Z" fill="#dce2e3" transform="matrix(1,0,0,1,0,0)" fill-rule="nonzero"></path></g><g clip-path="url(#SvgjsClipPath11600356cd8675-43ba-4e85-87a1-637c0315d6cf)"><path d=" M -2.176987974256561 0.2943793324098146 C -2.22966407657796 0.29485389189018774 -2.272374429811527 0.3378015248639409 -2.272374429811527 0.39047762718533985 C -2.272374429811527 0.44315372950673826 -2.22966407657796 0.4861013624804915 -2.176987974256561 0.4865759219608652 C -2.124311871935162 0.4861013624804915 -2.0816015187015955 0.44339100924692554 -2.0816015187015955 0.39047762718533985 C -2.0813642389614087 0.33780152486394033 -2.124311871935162 0.29485389189018707 -2.176987974256561 0.2943793324098146 Z" fill="#bab9b4" transform="matrix(1,0,0,1,0,0)" fill-rule="nonzero"></path></g><g clip-path="url(#SvgjsClipPath11600356cd8675-43ba-4e85-87a1-637c0315d6cf)"><path d=" M -3.266339261452698 0.3904776271853392 C -3.266339261452698 0.3375642451237537 -3.3095241741666372 0.2943793324098134 -3.362437556228223 0.2943793324098134 L -3.4601968091850535 0.2943793324098134 C -3.5131101912466387 0.2943793324098134 -3.5562951039605784 0.33756424512375316 -3.5562951039605784 0.3904776271853392 C -3.5562951039605784 0.44339100924692487 -3.5131101912466387 0.4865759219608645 -3.4601968091850535 0.4865759219608645 L -3.362437556228223 0.4865759219608645 C -3.3092868944264513 0.4865759219608645 -3.266339261452698 0.44339100924692487 -3.266339261452698 0.3904776271853392 Z" fill="#4e888f" transform="matrix(1,0,0,1,0,0)" fill-rule="nonzero"></path></g><g clip-path="url(#SvgjsClipPath11600356cd8675-43ba-4e85-87a1-637c0315d6cf)"><path d=" M -2.794389858221786 0.5838606154373218 C -2.8473032402833716 0.5838606154373218 -2.890488152997311 0.6270455281512608 -2.890488152997311 0.6799589102128469 C -2.890488152997311 0.7328722922744324 -2.8473032402833716 0.7760572049883723 -2.794389858221786 0.7760572049883723 L -2.7495439873265415 0.7760572049883723 L -2.6963933255247694 0.7760572049883723 C -2.6434799434631837 0.7760572049883723 -2.600295030749243 0.7328722922744324 -2.600295030749243 0.6799589102128469 C -2.600295030749243 0.6270455281512608 -2.6434799434631833 0.5838606154373218 -2.6963933255247694 0.5838606154373218 L -2.794389858221786 0.5838606154373218 Z" fill="#dce2e3" transform="matrix(1,0,0,1,0,0)" fill-rule="nonzero"></path></g><g clip-path="url(#SvgjsClipPath11600356cd8675-43ba-4e85-87a1-637c0315d6cf)"><path d=" M -3.313795209489994 0.6799589102128469 C -3.313795209489994 0.732872292274432 -3.270610296776055 0.7760572049883723 -3.217696914714469 0.7760572049883723 L -3.1325134879875223 0.7760572049883723 L -3.1199376617576386 0.7760572049883723 C -3.067024279696053 0.7760572049883723 -3.0238393669821138 0.7328722922744324 -3.0238393669821138 0.6799589102128469 C -3.0238393669821138 0.6270455281512608 -3.067024279696053 0.5838606154373218 -3.1199376617576386 0.5838606154373218 L -3.217696914714469 0.5838606154373218 C -3.270847576516241 0.5838606154373218 -3.313795209489994 0.6268082484110749 -3.313795209489994 0.6799589102128469 Z" fill="#4e888f" transform="matrix(1,0,0,1,0,0)" fill-rule="nonzero"></path></g><g clip-path="url(#SvgjsClipPath11600356cd8675-43ba-4e85-87a1-637c0315d6cf)"><path d=" M -3.5328044096821163 0.6415195923026369 L -3.578362119797921 0.6415195923026369 C -3.603039212777315 0.6415195923026369 -3.6229707109529796 0.6614510904783015 -3.6229707109529796 0.6861281834576951 C -3.6229707109529796 0.7108052764370894 -3.6030392127773148 0.7307367746127538 -3.578362119797921 0.7307367746127538 L -3.5328044096821163 0.7307367746127538 C -3.5081273167027223 0.7307367746127538 -3.488195818527058 0.7108052764370894 -3.488195818527058 0.6861281834576951 C -3.488195818527058 0.6614510904783015 -3.5083645964429087 0.6415195923026369 -3.5328044096821163 0.6415195923026369 Z" fill="#4e888f" transform="matrix(1,0,0,1,0,0)" fill-rule="nonzero"></path></g><g clip-path="url(#SvgjsClipPath11600356cd8675-43ba-4e85-87a1-637c0315d6cf)"><path d=" M -3.0364151932119974 0.9692029135001681 C -3.0364151932119974 0.9162895314385826 -3.0796001059259366 0.873104618724643 -3.1325134879875223 0.873104618724643 L -3.217696914714469 0.873104618724643 L -3.230272740944353 0.873104618724643 C -3.2831861230059385 0.873104618724643 -3.3263710357198777 0.9162895314385819 -3.3263710357198777 0.9692029135001681 C -3.3263710357198777 1.0221162955617538 -3.2831861230059385 1.0653012082756934 -3.230272740944353 1.0653012082756934 L -3.1325134879875223 1.0653012082756934 C -3.07936282618575 1.0653012082756927 -3.0364151932119974 1.0223535753019395 -3.0364151932119974 0.9692029135001681 Z" fill="#dce2e3" transform="matrix(1,0,0,1,0,0)" fill-rule="nonzero"></path></g><g clip-path="url(#SvgjsClipPath11600356cd8675-43ba-4e85-87a1-637c0315d6cf)"><path d=" M -2.9080468537711104 1.1625859017521505 L -3.0058061067279414 1.1625859017521505 C -3.058719488789526 1.1625859017521505 -3.1019044015034662 1.2057708144660897 -3.1019044015034662 1.2586841965276758 C -3.1019044015034662 1.3115975785892613 -3.058719488789526 1.3547824913032012 -3.0058061067279414 1.3547824913032012 L -2.9080468537711104 1.3547824913032012 C -2.855133471709525 1.3547824913032012 -2.8119485589955855 1.3115975785892613 -2.8119485589955855 1.2586841965276758 C -2.812185838735772 1.2057708144660897 -2.855133471709525 1.1625859017521505 -2.9080468537711104 1.1625859017521505 Z" fill="#dce2e3" transform="matrix(1,0,0,1,0,0)" fill-rule="nonzero"></path></g><g clip-path="url(#SvgjsClipPath11600356cd8675-43ba-4e85-87a1-637c0315d6cf)"><path d=" M -3.8564539752964775 0.3458690360302805 L -3.9112655952795548 0.3458690360302805 C -3.9359426882589488 0.3458690360302805 -3.955874186434613 0.36580053420594505 -3.955874186434613 0.3904776271853392 C -3.955874186434613 0.415154720164733 -3.9359426882589488 0.4350862183403974 -3.9112655952795548 0.4350862183403974 L -3.8564539752964775 0.4350862183403974 C -3.831776882317083 0.4350862183403974 -3.811845384141419 0.415154720164733 -3.811845384141419 0.3904776271853392 C -3.8120826638816054 0.36603781394613155 -3.83201416205727 0.3458690360302805 -3.8564539752964775 0.3458690360302805 Z" fill="#4e888f" transform="matrix(1,0,0,1,0,0)" fill-rule="nonzero"></path></g><g clip-path="url(#SvgjsClipPath11600356cd8675-43ba-4e85-87a1-637c0315d6cf)"><path d=" M -1.9890624200288671 0.873104618724643 L -2.005197442361548 0.873104618724643 L -2.248409176052692 0.873104618724643 L -2.6961560457845826 0.873104618724643 L -2.749306707586354 0.873104618724643 C -2.80222008964794 0.873104618724643 -2.845405002361879 0.9162895314385819 -2.845405002361879 0.9692029135001681 C -2.845405002361879 1.0221162955617538 -2.80222008964794 1.0653012082756934 -2.749306707586354 1.0653012082756934 L -2.5578219572558636 1.0653012082756934 L -2.3226777347310605 1.0653012082756934 L -1.9890624200288671 1.0653012082756934 C -1.9361490379672825 1.0653012082756934 -1.892964125253342 1.0221162955617538 -1.892964125253342 0.9692029135001681 C -1.8929641252533425 0.9162895314385819 -1.936386317707468 0.873104618724643 -1.9890624200288671 0.873104618724643 Z" fill="#bab9b4" transform="matrix(1,0,0,1,0,0)" fill-rule="nonzero"></path></g><g clip-path="url(#SvgjsClipPath11600356cd8675-43ba-4e85-87a1-637c0315d6cf)"><path d=" M -1.610126674951056 1.5638259424074907 L -1.626261697283737 1.5638259424074907 L -1.7724260172386095 1.5638259424074907 L -2.122888193494043 1.5638259424074907 L -2.1760388552958156 1.5638259424074907 C -2.228952237357401 1.5638259424074907 -2.272137150071341 1.60701085512143 -2.272137150071341 1.659924237183016 C -2.272137150071341 1.7128376192446018 -2.2289522373574013 1.7560225319585414 -2.1760388552958156 1.7560225319585414 L -2.0816015187015964 1.7560225319585414 L -1.8464572961767929 1.7560225319585414 L -1.6098893952108706 1.7560225319585414 C -1.5569760131492858 1.7560225319585414 -1.5137911004353457 1.7128376192446018 -1.5137911004353457 1.659924237183016 C -1.5140283801755312 1.60701085512143 -1.5569760131492845 1.5638259424074907 -1.610126674951056 1.5638259424074907 Z" fill="#404040" transform="matrix(1,0,0,1,0,0)" fill-rule="nonzero"></path></g><g clip-path="url(#SvgjsClipPath11600356cd8675-43ba-4e85-87a1-637c0315d6cf)"><path d=" M -1.9655717257504062 0.10099634415783154 C -1.9655717257504062 0.04808296209624674 -2.0087566384643463 0.004898049382306979 -2.0616700205259315 0.004898049382306979 L -2.3129492653834154 0.004898049382306979 L -2.4610118232597804 0.004898049382306979 L -2.821914308083419 0.004898049382306979 C -2.8748276901450045 0.004898049382306979 -2.918012602858944 0.04808296209624674 -2.918012602858944 0.10099634415783154 C -2.918012602858944 0.15390972621941712 -2.8748276901450045 0.19709463893335688 -2.821914308083419 0.19709463893335688 L -2.543347893104489 0.19709463893335688 L -2.177462533736935 0.19709463893335688 L -2.1758015755556297 0.19709463893335688 L -2.1086514090828556 0.19709463893335688 L -2.0616700205259324 0.19709463893335688 C -2.0087566384643463 0.19709463893335621 -1.9655717257504062 0.15414700595960362 -1.9655717257504062 0.10099634415783154 Z" fill="#bab9b4" transform="matrix(1,0,0,1,0,0)" fill-rule="nonzero"></path></g><g clip-path="url(#SvgjsClipPath11600356cd8675-43ba-4e85-87a1-637c0315d6cf)"><path d=" M -1.8170346083936684 0.5838606154373218 L -2.108651409082854 0.5838606154373218 L -2.175801575555629 0.5838606154373218 L -2.1774625337369335 0.5838606154373218 L -2.248409176052692 0.5838606154373218 C -2.3013225581142773 0.5838606154373218 -2.3445074708282174 0.6270455281512608 -2.3445074708282174 0.6799589102128469 C -2.3445074708282174 0.7328722922744324 -2.3013225581142778 0.7760572049883723 -2.248409176052692 0.7760572049883723 L -1.9888251402886814 0.7760572049883723 L -1.816797328653482 0.7760572049883723 C -1.7638839465918972 0.7760572049883723 -1.7206990338779566 0.7328722922744324 -1.7206990338779566 0.6799589102128469 C -1.720936313618144 0.6268082484110749 -1.7643585060722695 0.5838606154373218 -1.8170346083936684 0.5838606154373218 Z" fill="#bab9b4" transform="matrix(1,0,0,1,0,0)" fill-rule="nonzero"></path></g><g clip-path="url(#SvgjsClipPath11600356cd8675-43ba-4e85-87a1-637c0315d6cf)"><path d=" M -2.861065465214187 -0.09214936435396437 L -2.8221515878236043 -0.09214936435396437 L -2.4610118232597795 -0.09214936435396437 L -2.312949265383415 -0.09214936435396437 C -2.2600358833218293 -0.09214936435396437 -2.2168509706078896 -0.13533427706790346 -2.2168509706078896 -0.18824765912948926 C -2.2168509706078896 -0.2411610411910748 -2.260035883321829 -0.2843459539050142 -2.312949265383415 -0.2843459539050142 L -2.4610118232597795 -0.2843459539050142 L -2.606701583734279 -0.2843459539050142 L -2.860828185474001 -0.2843459539050142 C -2.9137415675355864 -0.2843459539050142 -2.9569264802495256 -0.2411610411910748 -2.9569264802495256 -0.18824765912948926 C -2.957401039729899 -0.13533427706790407 -2.9139788472757724 -0.09214936435396437 -2.861065465214187 -0.09214936435396437 Z" fill="#bab9b4" transform="matrix(1,0,0,1,0,0)" fill-rule="nonzero"></path></g><g clip-path="url(#SvgjsClipPath11600356cd8675-43ba-4e85-87a1-637c0315d6cf)"><path d=" M -2.6071761432146525 -0.3816306473814717 L -2.4612491029999655 -0.3816306473814717 L -2.313186545123601 -0.3816306473814717 L -1.8466945759169784 -0.3816306473814717 C -1.7937811938553931 -0.3816306473814717 -1.750596281141453 -0.42481556009541144 -1.750596281141453 -0.4777289421569967 C -1.750596281141453 -0.5306423242185822 -1.7937811938553927 -0.5738272369325219 -1.8466945759169784 -0.5738272369325219 L -2.606938863474465 -0.5738272369325219 C -2.659852245536051 -0.5738272369325219 -2.70303715824999 -0.5306423242185822 -2.70303715824999 -0.4777289421569967 C -2.70303715824999 -0.42481556009541144 -2.660089525276237 -0.3816306473814717 -2.6071761432146525 -0.3816306473814717 Z" fill="#bab9b4" transform="matrix(1,0,0,1,0,0)" fill-rule="nonzero"></path></g><g clip-path="url(#SvgjsClipPath11600356cd8675-43ba-4e85-87a1-637c0315d6cf)"><path d=" M -2.3229150144712474 1.1625859017521505 L -2.5580592369960504 1.1625859017521505 C -2.6109726190576357 1.1625859017521505 -2.654157531771576 1.2057708144660897 -2.654157531771576 1.2586841965276758 C -2.654157531771576 1.3115975785892613 -2.6109726190576366 1.3547824913032012 -2.5580592369960504 1.3547824913032012 L -2.3229150144712474 1.3547824913032012 C -2.270001632409662 1.3547824913032012 -2.226816719695722 1.3115975785892613 -2.226816719695722 1.2586841965276758 C -2.2270539994359084 1.2057708144660897 -2.2697643526694753 1.1625859017521505 -2.3229150144712474 1.1625859017521505 Z" fill="#bab9b4" transform="matrix(1,0,0,1,0,0)" fill-rule="nonzero"></path></g></g><g><path d=" M 0.082763671875 0.93310546875 L 0.1962890625 0.93310546875 L 0.1962890625 0.224853515625 L 0.082763671875 0.224853515625 L 0.082763671875 0.02197265625 L 0.6240234375 0.0234375 Q 0.699462890625 0.0234375 0.7620849609375 0.0501708984375 Q 0.82470703125 0.076904296875 0.8701171875 0.1226806640625 Q 0.91552734375 0.16845703125 0.9407958984375 0.2296142578125 Q 0.966064453125 0.290771484375 0.966064453125 0.359619140625 Q 0.966064453125 0.440185546875 0.9378662109375 0.492919921875 Q 0.90966796875 0.545654296875 0.857666015625 0.577880859375 Q 0.91259765625 0.613037109375 0.9444580078125 0.6646728515625 Q 0.976318359375 0.71630859375 0.976318359375 0.790283203125 Q 0.976318359375 0.86572265625 0.9503173828125 0.9287109375 Q 0.92431640625 0.99169921875 0.8792724609375 1.0374755859375 Q 0.834228515625 1.083251953125 0.772705078125 1.1085205078125 Q 0.711181640625 1.1337890625 0.64013671875 1.1337890625 L 0.082763671875 1.1337890625 L 0.082763671875 0.93310546875 M 0.439453125 0.674560546875 L 0.439453125 0.93310546875 L 0.6240234375 0.93310546875 Q 0.645263671875 0.93310546875 0.6639404296875 0.922119140625 Q 0.6826171875 0.9111328125 0.6961669921875 0.8931884765625 Q 0.709716796875 0.875244140625 0.7177734375 0.8514404296875 Q 0.725830078125 0.82763671875 0.725830078125 0.802001953125 Q 0.725830078125 0.77490234375 0.7177734375 0.7518310546875 Q 0.709716796875 0.728759765625 0.69580078125 0.7115478515625 Q 0.681884765625 0.6943359375 0.6632080078125 0.6844482421875 Q 0.64453125 0.674560546875 0.6240234375 0.674560546875 L 0.439453125 0.674560546875 M 0.439453125 0.224853515625 L 0.439453125 0.473876953125 L 0.61376953125 0.473876953125 Q 0.63427734375 0.473876953125 0.652587890625 0.463623046875 Q 0.6708984375 0.453369140625 0.6844482421875 0.4361572265625 Q 0.697998046875 0.4189453125 0.7060546875 0.3973388671875 Q 0.714111328125 0.375732421875 0.714111328125 0.352294921875 Q 0.714111328125 0.32958984375 0.7060546875 0.306884765625 Q 0.697998046875 0.2841796875 0.6844482421875 0.265869140625 Q 0.6708984375 0.24755859375 0.652587890625 0.2362060546875 Q 0.63427734375 0.224853515625 0.61376953125 0.224853515625 L 0.439453125 0.224853515625 M 1.761474609375 0.651123046875 L 1.5556640625 0.651123046875 L 1.5556640625 0.57275390625 Q 1.525634765625 0.57275390625 1.500732421875 0.5767822265625 Q 1.475830078125 0.580810546875 1.4571533203125 0.59033203125 Q 1.4384765625 0.599853515625 1.4256591796875 0.61669921875 Q 1.412841796875 0.633544921875 1.40771484375 0.658447265625 L 1.40771484375 0.93310546875 L 1.562255859375 0.93310546875 L 1.562255859375 1.1337890625 L 1.067138671875 1.1337890625 L 1.067138671875 0.93310546875 L 1.1806640625 0.93310546875 L 1.1806640625 0.57568359375 L 1.068603515625 0.57568359375 L 1.068603515625 0.375 L 1.40625 0.375 L 1.40625 0.428466796875 Q 1.4384765625 0.40283203125 1.478759765625 0.388916015625 Q 1.51904296875 0.375 1.566650390625 0.375 Q 1.614990234375 0.375 1.666259765625 0.375732421875 Q 1.717529296875 0.37646484375 1.761474609375 0.37646484375 L 1.761474609375 0.651123046875 M 1.88525390625 0.375 L 2.225830078125 0.375 L 2.225830078125 0.93310546875 L 2.331298828125 0.93310546875 L 2.331298828125 1.1337890625 L 1.88525390625 1.1337890625 L 1.88525390625 0.93310546875 L 1.99951171875 0.93310546875 L 1.99951171875 0.57568359375 L 1.88525390625 0.57568359375 L 1.88525390625 0.375 M 1.98779296875 0.13037109375 Q 1.98779296875 0.103271484375 1.9976806640625 0.0794677734375 Q 2.007568359375 0.0556640625 2.025146484375 0.0380859375 Q 2.042724609375 0.0205078125 2.0665283203125 0.01025390625 Q 2.09033203125 0 2.1181640625 0 Q 2.14453125 0 2.16796875 0.01025390625 Q 2.19140625 0.0205078125 2.208984375 0.0380859375 Q 2.2265625 0.0556640625 2.23681640625 0.0794677734375 Q 2.2470703125 0.103271484375 2.2470703125 0.13037109375 Q 2.2470703125 0.157470703125 2.23681640625 0.1812744140625 Q 2.2265625 0.205078125 2.208984375 0.22265625 Q 2.19140625 0.240234375 2.16796875 0.25048828125 Q 2.14453125 0.2607421875 2.1181640625 0.2607421875 Q 2.09033203125 0.2607421875 2.0665283203125 0.25048828125 Q 2.042724609375 0.240234375 2.025146484375 0.22265625 Q 2.007568359375 0.205078125 1.9976806640625 0.1812744140625 Q 1.98779296875 0.157470703125 1.98779296875 0.13037109375 M 2.9296875 1.0927734375 Q 2.904052734375 1.10888671875 2.8828125 1.1202392578125 Q 2.861572265625 1.131591796875 2.84033203125 1.1385498046875 Q 2.819091796875 1.1455078125 2.79638671875 1.1488037109375 Q 2.773681640625 1.152099609375 2.74658203125 1.152099609375 Q 2.678466796875 1.152099609375 2.6246337890625 1.1334228515625 Q 2.57080078125 1.11474609375 2.5338134765625 1.0821533203125 Q 2.496826171875 1.049560546875 2.47705078125 1.0052490234375 Q 2.457275390625 0.9609375 2.457275390625 0.908935546875 Q 2.457275390625 0.856201171875 2.4774169921875 0.8115234375 Q 2.49755859375 0.766845703125 2.53564453125 0.7349853515625 Q 2.57373046875 0.703125 2.6290283203125 0.6851806640625 Q 2.684326171875 0.667236328125 2.75537109375 0.667236328125 Q 2.807373046875 0.667236328125 2.8502197265625 0.6727294921875 Q 2.89306640625 0.67822265625 2.9296875 0.686279296875 L 2.9296875 0.662841796875 Q 2.9296875 0.63427734375 2.918701171875 0.6134033203125 Q 2.90771484375 0.592529296875 2.887939453125 0.5789794921875 Q 2.8681640625 0.5654296875 2.84033203125 0.5592041015625 Q 2.8125 0.552978515625 2.779541015625 0.552978515625 Q 2.710693359375 0.552978515625 2.6583251953125 0.5665283203125 Q 2.60595703125 0.580078125 2.5576171875 0.605712890625 L 2.4873046875 0.463623046875 Q 2.56201171875 0.412353515625 2.6436767578125 0.38525390625 Q 2.725341796875 0.358154296875 2.81689453125 0.358154296875 Q 2.887939453125 0.358154296875 2.9483642578125 0.3739013671875 Q 3.0087890625 0.3896484375 3.052001953125 0.4251708984375 Q 3.09521484375 0.460693359375 3.1197509765625 0.517822265625 Q 3.144287109375 0.574951171875 3.144287109375 0.656982421875 L 3.144287109375 0.93310546875 L 3.24609375 0.93310546875 L 3.24609375 1.1337890625 L 2.9296875 1.1337890625 L 2.9296875 1.0927734375 M 2.7626953125 0.979248046875 Q 2.814697265625 0.979248046875 2.857177734375 0.96240234375 Q 2.899658203125 0.945556640625 2.9296875 0.92138671875 L 2.9296875 0.82470703125 L 2.75390625 0.82470703125 Q 2.737060546875 0.82470703125 2.720947265625 0.829833984375 Q 2.704833984375 0.8349609375 2.6920166015625 0.844482421875 Q 2.67919921875 0.85400390625 2.6715087890625 0.867919921875 Q 2.663818359375 0.8818359375 2.663818359375 0.900146484375 Q 2.663818359375 0.933837890625 2.6883544921875 0.95654296875 Q 2.712890625 0.979248046875 2.7626953125 0.979248046875 M 4.02392578125 0.697265625 Q 4.02392578125 0.633544921875 3.990234375 0.5972900390625 Q 3.95654296875 0.56103515625 3.90087890625 0.56103515625 Q 3.86279296875 0.56103515625 3.823974609375 0.577880859375 Q 3.78515625 0.5947265625 3.74853515625 0.640869140625 L 3.74853515625 0.93310546875 L 3.87158203125 0.93310546875 L 3.87158203125 1.1337890625 L 3.39990234375 1.1337890625 L 3.39990234375 0.93310546875 L 3.51123046875 0.93310546875 L 3.51123046875 0.57568359375 L 3.4013671875 0.57568359375 L 3.4013671875 0.375 L 3.7470703125 0.375 L 3.7470703125 0.441650390625 Q 3.794677734375 0.404296875 3.8536376953125 0.3826904296875 Q 3.91259765625 0.361083984375 3.977783203125 0.361083984375 Q 4.11474609375 0.361083984375 4.188720703125 0.4376220703125 Q 4.2626953125 0.51416015625 4.2626953125 0.661376953125 L 4.2626953125 0.93310546875 L 4.370361328125 0.93310546875 L 4.370361328125 1.1337890625 L 4.02392578125 1.1337890625 L 4.02392578125 0.697265625" fill="#404040" fill-rule="nonzero"></path></g><g></g></g><defs><clipPath id="SvgjsClipPath116005"><path d=" M -3.955874186434613 -0.622233469458541 h 3.5558741864346133 v 2.378256001417082 h -3.5558741864346133 Z"></path></clipPath><clipPath id="SvgjsClipPath11600356cd8675-43ba-4e85-87a1-637c0315d6cf"><path d=" M -3.955874186434613 -0.6222334694585409 L -0.3999999999999999 -0.6222334694585409 L -0.3999999999999999 1.756022531958541 L -3.955874186434613 1.756022531958541 Z"></path></clipPath></defs></svg>